<mxfile host="app.diagrams.net" agent="Mozilla/5.0 (Macintosh; Intel Mac OS X 10_15_7) AppleWebKit/537.36 (KHTML, like Gecko) Chrome/135.0.0.0 Safari/537.36" version="26.2.14">
  <diagram name="Page-1" id="Tt-wRmag9iVUzmDve8gf">
    <mxGraphModel dx="976" dy="565" grid="1" gridSize="10" guides="1" tooltips="1" connect="1" arrows="1" fold="1" page="1" pageScale="1" pageWidth="850" pageHeight="1100" math="0" shadow="0">
      <root>
        <mxCell id="0" />
        <mxCell id="1" parent="0" />
        <mxCell id="mkHS18Qtj1zgVvM5Q_WC-12" style="edgeStyle=orthogonalEdgeStyle;rounded=0;orthogonalLoop=1;jettySize=auto;html=1;exitX=0;exitY=0.5;exitDx=0;exitDy=0;entryX=0.5;entryY=0;entryDx=0;entryDy=0;" edge="1" parent="1" source="mkHS18Qtj1zgVvM5Q_WC-1" target="mkHS18Qtj1zgVvM5Q_WC-2">
          <mxGeometry relative="1" as="geometry" />
        </mxCell>
        <mxCell id="mkHS18Qtj1zgVvM5Q_WC-13" style="edgeStyle=orthogonalEdgeStyle;rounded=0;orthogonalLoop=1;jettySize=auto;html=1;exitX=1;exitY=0.5;exitDx=0;exitDy=0;entryX=0.5;entryY=0;entryDx=0;entryDy=0;" edge="1" parent="1" source="mkHS18Qtj1zgVvM5Q_WC-1" target="mkHS18Qtj1zgVvM5Q_WC-3">
          <mxGeometry relative="1" as="geometry" />
        </mxCell>
        <mxCell id="mkHS18Qtj1zgVvM5Q_WC-1" value="Check DB" style="rounded=1;whiteSpace=wrap;html=1;" vertex="1" parent="1">
          <mxGeometry x="240" y="80" width="80" height="40" as="geometry" />
        </mxCell>
        <mxCell id="mkHS18Qtj1zgVvM5Q_WC-9" style="edgeStyle=orthogonalEdgeStyle;rounded=0;orthogonalLoop=1;jettySize=auto;html=1;exitX=0.5;exitY=1;exitDx=0;exitDy=0;entryX=0;entryY=0.5;entryDx=0;entryDy=0;" edge="1" parent="1" source="mkHS18Qtj1zgVvM5Q_WC-2" target="mkHS18Qtj1zgVvM5Q_WC-8">
          <mxGeometry relative="1" as="geometry" />
        </mxCell>
        <mxCell id="mkHS18Qtj1zgVvM5Q_WC-17" style="edgeStyle=orthogonalEdgeStyle;rounded=0;orthogonalLoop=1;jettySize=auto;html=1;exitX=1;exitY=0.5;exitDx=0;exitDy=0;entryX=0;entryY=0.5;entryDx=0;entryDy=0;" edge="1" parent="1" source="mkHS18Qtj1zgVvM5Q_WC-2" target="mkHS18Qtj1zgVvM5Q_WC-16">
          <mxGeometry relative="1" as="geometry" />
        </mxCell>
        <mxCell id="mkHS18Qtj1zgVvM5Q_WC-2" value="DataLake" style="rounded=1;whiteSpace=wrap;html=1;" vertex="1" parent="1">
          <mxGeometry x="80" y="200" width="80" height="40" as="geometry" />
        </mxCell>
        <mxCell id="mkHS18Qtj1zgVvM5Q_WC-21" style="edgeStyle=orthogonalEdgeStyle;rounded=0;orthogonalLoop=1;jettySize=auto;html=1;exitX=1;exitY=0.5;exitDx=0;exitDy=0;entryX=0;entryY=0.5;entryDx=0;entryDy=0;" edge="1" parent="1" source="mkHS18Qtj1zgVvM5Q_WC-3" target="mkHS18Qtj1zgVvM5Q_WC-20">
          <mxGeometry relative="1" as="geometry" />
        </mxCell>
        <mxCell id="mkHS18Qtj1zgVvM5Q_WC-3" value="Batch inference" style="rounded=1;whiteSpace=wrap;html=1;" vertex="1" parent="1">
          <mxGeometry x="400" y="200" width="80" height="40" as="geometry" />
        </mxCell>
        <mxCell id="mkHS18Qtj1zgVvM5Q_WC-19" style="edgeStyle=orthogonalEdgeStyle;rounded=0;orthogonalLoop=1;jettySize=auto;html=1;exitX=0.5;exitY=0;exitDx=0;exitDy=0;entryX=0.5;entryY=1;entryDx=0;entryDy=0;" edge="1" parent="1" source="mkHS18Qtj1zgVvM5Q_WC-6" target="mkHS18Qtj1zgVvM5Q_WC-3">
          <mxGeometry relative="1" as="geometry" />
        </mxCell>
        <mxCell id="mkHS18Qtj1zgVvM5Q_WC-6" value="Model registry" style="rounded=1;whiteSpace=wrap;html=1;" vertex="1" parent="1">
          <mxGeometry x="400" y="320" width="80" height="40" as="geometry" />
        </mxCell>
        <mxCell id="mkHS18Qtj1zgVvM5Q_WC-10" style="edgeStyle=orthogonalEdgeStyle;rounded=0;orthogonalLoop=1;jettySize=auto;html=1;exitX=1;exitY=0.5;exitDx=0;exitDy=0;" edge="1" parent="1" source="mkHS18Qtj1zgVvM5Q_WC-8" target="mkHS18Qtj1zgVvM5Q_WC-6">
          <mxGeometry relative="1" as="geometry" />
        </mxCell>
        <mxCell id="mkHS18Qtj1zgVvM5Q_WC-8" value="Model training" style="rounded=1;whiteSpace=wrap;html=1;" vertex="1" parent="1">
          <mxGeometry x="240" y="320" width="80" height="40" as="geometry" />
        </mxCell>
        <mxCell id="mkHS18Qtj1zgVvM5Q_WC-18" style="edgeStyle=orthogonalEdgeStyle;rounded=0;orthogonalLoop=1;jettySize=auto;html=1;exitX=1;exitY=0.5;exitDx=0;exitDy=0;entryX=0;entryY=0.5;entryDx=0;entryDy=0;" edge="1" parent="1" source="mkHS18Qtj1zgVvM5Q_WC-16" target="mkHS18Qtj1zgVvM5Q_WC-3">
          <mxGeometry relative="1" as="geometry" />
        </mxCell>
        <mxCell id="mkHS18Qtj1zgVvM5Q_WC-16" value="Feature store" style="rounded=1;whiteSpace=wrap;html=1;" vertex="1" parent="1">
          <mxGeometry x="240" y="200" width="80" height="40" as="geometry" />
        </mxCell>
        <mxCell id="mkHS18Qtj1zgVvM5Q_WC-20" value="Score" style="rounded=1;whiteSpace=wrap;html=1;" vertex="1" parent="1">
          <mxGeometry x="560" y="200" width="80" height="40" as="geometry" />
        </mxCell>
      </root>
    </mxGraphModel>
  </diagram>
</mxfile>
